<svg xmlns="http://www.w3.org/2000/svg"><style>:root svg:not(:target){display:none}</style><svg viewBox="0 0 24 24" fill="none" id="burger"><line y1="3" x2="24" y2="3" stroke="black" stroke-width="2"></line><line y1="11" x2="24" y2="11" stroke="black" stroke-width="2"></line><line y1="19" x2="24" y2="19" stroke="black" stroke-width="2"></line></svg><svg viewBox="0 0 24 18" fill="none" id="buttons-slider"><path d="M8 0L0 9L8 18V0Z" fill="#666666"></path><path d="M24 9L16 0V18L24 9Z" fill="#666666"></path></svg><svg viewBox="0 0 67 28" fill="none" id="cat-pro"><g clip-path="url(#cat-pro_0)"><path d="M60.5591 2.87843C61.1364 1.95997 61.9036 1.17573 62.8091 0.578427C63.3091 0.228427 63.6091 0.228427 63.9091 0.878427C64.3091 1.82843 64.6591 2.82843 64.3591 3.87843C64.3045 4.05651 64.2942 4.24523 64.3291 4.4282C64.3639 4.61117 64.4429 4.78288 64.5591 4.92843C64.8591 5.32843 65.1091 5.72843 65.3591 6.07843C65.6994 6.51031 65.9201 7.02408 65.9991 7.5682C66.078 8.11231 66.0125 8.66763 65.8091 9.17843C65.6256 9.67433 65.5908 10.213 65.7091 10.7284C65.809 11.2234 65.809 11.7334 65.7091 12.2284C65.6687 12.5991 65.5187 12.9494 65.2782 13.2344C65.0377 13.5194 64.7177 13.7262 64.3591 13.8284C63.7196 13.9501 63.1488 14.3069 62.7591 14.8284C62.7119 14.9052 62.6457 14.9686 62.5669 15.0124C62.488 15.0562 62.3993 15.0789 62.3091 15.0784C61.7091 15.1784 60.2091 13.8284 60.2091 13.2284V12.9284C60.2591 11.1284 60.1591 10.9784 58.5091 10.2284C58.1638 10.1066 57.8544 9.90037 57.6091 9.62843C57.3091 9.22843 56.9091 9.27843 56.4591 9.42843C56.0091 9.57843 55.7591 9.87843 55.8091 10.3784C55.9599 11.5889 56.0101 12.8097 55.9591 14.0284C55.9624 14.1675 55.9966 14.3041 56.0591 14.4284C57.6091 16.6784 58.2091 19.3284 58.9591 21.8784C59.5591 23.8284 60.6591 24.8784 62.6591 25.0284C62.9792 25.054 63.2968 25.1041 63.6091 25.1784C64.02 25.2444 64.4017 25.4322 64.7048 25.7174C65.0078 26.0027 65.2183 26.3723 65.3091 26.7784C65.6591 27.8284 65.4591 28.0784 64.4091 28.0784H61.1591C60.7384 28.0997 60.3259 27.9562 60.0091 27.6784C59.5031 27.2514 58.9282 26.9132 58.3091 26.6784C57.6247 26.4258 57.0323 25.9728 56.6091 25.3784C56.0234 24.5602 55.3531 23.806 54.6091 23.1284C53.2091 21.6784 51.7091 20.2784 50.4091 18.7784C49.4195 17.7563 48.8486 16.4006 48.8091 14.9784C48.8091 14.5284 48.7091 14.3284 48.2091 14.5284C48.0594 14.6234 47.8864 14.6753 47.7091 14.6784C46.3091 14.6784 45.6091 15.5284 45.1091 16.7784C44.6591 17.8284 44.0591 18.8284 43.5091 19.8784C43.1972 20.5357 43.0269 21.2511 43.0091 21.9784C43.0091 23.1784 43.3091 23.5784 44.4091 23.9784C45.1091 24.2284 45.7591 24.4784 46.1091 25.1784C46.5091 25.9784 46.4091 26.1784 45.5591 26.2284H42.1591C41.9631 26.2478 41.7659 26.2052 41.5955 26.1065C41.425 26.0078 41.2899 25.8581 41.2091 25.6784L40.3091 24.1784C40.0438 23.7871 39.874 23.3389 39.8132 22.87C39.7524 22.4011 39.8024 21.9245 39.9591 21.4784C40.1755 20.6102 40.1926 19.7042 40.0091 18.8284C39.8831 18.2185 39.8939 17.5882 40.0409 16.9829C40.1879 16.3777 40.4674 15.8126 40.8591 15.3284C41.1591 14.9784 41.1591 14.8284 40.6591 14.7284C38.6146 14.2941 36.6325 13.6054 34.7591 12.6784C34.7459 12.6784 34.7331 12.6732 34.7238 12.6638C34.7144 12.6544 34.7091 12.6417 34.7091 12.6284C33.1091 12.0284 32.8091 12.1284 32.3591 13.7784C31.9591 15.1784 31.5591 16.5784 31.2591 18.0284C30.9091 19.6284 31.3091 21.1284 31.8091 22.6284C32.0091 23.2284 32.6091 23.1784 33.0591 23.3284C34.0591 23.6284 34.9091 24.0284 35.3091 25.0784C35.6591 25.8784 35.6091 25.9784 34.7591 25.9784C33.9091 25.9784 33.0591 25.9284 32.1591 25.9784C31.3997 25.9922 30.6584 25.7451 30.0591 25.2784C27.6591 23.6784 26.9591 21.2284 26.7591 18.5784C26.6591 16.9284 25.7591 15.6284 24.7091 14.3784C24.5091 14.1284 24.3091 14.0284 24.0091 14.2284C22.9359 14.8202 21.8153 15.3219 20.6591 15.7284C18.2462 16.5804 16.1289 18.1077 14.5591 20.1284C13.9729 20.8659 13.5933 21.746 13.4591 22.6784C13.3091 23.5784 13.5591 23.9784 14.4591 24.2284C15.3591 24.4784 15.8091 24.9784 15.9091 25.9284C15.9591 26.3284 15.8091 26.5284 15.4091 26.5284H11.3591C11.2266 26.519 11.0982 26.4778 10.9851 26.4081C10.8719 26.3385 10.7772 26.2425 10.7091 26.1284C10.081 25.3508 9.74494 24.3779 9.75912 23.3784C9.73288 21.6509 9.88366 19.9252 10.2091 18.2284C10.2759 17.7203 10.4656 17.2361 10.7618 16.8178C11.0581 16.3996 11.4519 16.06 11.9091 15.8284C14.8591 14.4284 16.4091 11.7784 17.8091 9.02843C18.1091 8.47843 17.8591 8.37843 17.3591 8.42843C15.9598 8.62269 14.634 9.17368 13.5091 10.0284C12.0362 11.1029 10.6487 12.2897 9.35912 13.5784C7.98394 14.9753 6.16046 15.8427 4.20911 16.0284C0.559114 16.2284 -1.14089 14.1784 -0.990885 10.8784C-0.957354 9.75323 -0.533061 8.67482 0.209115 7.82843C0.467126 7.49393 0.818981 7.24392 1.21975 7.11033C1.62052 6.97674 2.05201 6.96563 2.45912 7.07843C3.20912 7.27843 3.40911 7.67843 3.10911 8.42843C2.95911 8.72843 2.75911 8.97843 2.60911 9.27843C2.39341 9.58491 2.22488 9.92198 2.10911 10.2784C1.55911 11.7784 2.30911 12.8284 3.85911 12.9784C5.50911 13.1284 6.85912 12.4284 8.10912 11.4284C9.61508 10.2226 10.9595 8.82775 12.1091 7.27843C12.9687 6.14713 14.0512 5.20407 15.2895 4.50749C16.5279 3.81091 17.8959 3.37559 19.3091 3.22843C20.4591 3.07843 21.4591 2.57843 22.5591 2.27843C24.6164 1.65123 26.7586 1.34761 28.9091 1.37843C29.9052 1.41991 30.8974 1.23172 31.8091 0.828427C34.2591 -0.171573 36.8091 -0.171573 39.3591 0.328427C41.3591 0.728427 43.3591 1.22843 45.3091 1.72843C46.4696 1.94467 47.6629 1.91057 48.8091 1.62843C51.0034 1.07219 53.248 0.737189 55.5091 0.628427C56.9904 0.55636 58.4667 0.848196 59.8091 1.47843C60.8091 1.92843 60.8091 1.92843 60.5591 2.87843Z" fill="black"></path></g><defs><clipPath id="cat-pro_0"><rect width="67" height="28" fill="white"></rect></clipPath></defs></svg><svg viewBox="0 0 36 50" fill="none" id="cat-slim"><g clip-path="url(#cat-slim_0)"><path d="M28.2034 0H28.008C27.6778 0.187081 27.415 0.473924 27.2571 0.819588C26.968 1.37738 26.7453 1.96735 26.5937 2.57732C26.5612 2.76073 26.4688 2.92811 26.331 3.05315C26.1932 3.17818 26.0179 3.25377 25.8326 3.26804C25.2658 3.36597 24.7288 3.59243 24.2626 3.93012C23.7965 4.26781 23.4135 4.7078 23.1429 5.21649C22.7708 5.87697 22.4526 6.5665 22.1914 7.27835C21.4611 9.17526 20.9006 11.134 20.2114 13.0464C19.8874 13.9175 19.872 13.9175 18.8949 13.9175C17.7274 13.9175 17.8097 13.7371 17.7943 15.0258C17.7943 15.433 17.9177 15.6392 18.3497 15.6186C18.4834 15.6186 18.684 15.5515 18.7354 15.7268C18.7869 15.9021 18.612 15.9794 18.5091 16.0825C17.8994 16.7029 17.1276 17.1388 16.2823 17.3402C15.3051 17.6031 14.3074 17.8093 13.356 18.1289C10.9131 18.9485 8.65543 20.0928 6.89657 22.0309C5.86814 23.2347 5.04455 24.6001 4.45886 26.0722C2.57143 30.5258 1.656 35.2165 0.946286 39.9536C0.612 42.1753 0.375429 44.4072 0.195429 46.6546C0.102857 47.7577 0 48.8763 0 50H17.1411C17.1696 49.7731 17.1283 49.5429 17.0229 49.3402C16.858 48.9289 16.5901 48.5672 16.2451 48.29C15.9 48.0128 15.4895 47.8295 15.0531 47.7577C14.6931 47.6753 14.652 47.567 14.8731 47.2835C15.2338 46.801 15.5103 46.2607 15.6909 45.6856C16.5291 43.2062 16.8531 40.6186 17.2594 38.0567C17.4889 36.0999 18.0894 34.2051 19.0286 32.4742C19.7611 31.2002 20.7382 30.0842 21.9034 29.1907C22.3303 28.866 22.3457 28.866 22.4177 29.4175C22.4691 29.7835 22.4794 30.1598 22.5051 30.5309C22.6595 32.9662 22.6285 35.4097 22.4126 37.8402C22.2184 39.7242 22.1926 41.6217 22.3354 43.5103C22.5399 45.7029 22.9304 47.8739 23.5029 50H30.3429C30.2536 49.442 29.9973 48.9243 29.6078 48.5156C29.2184 48.1069 28.7143 47.8264 28.1623 47.7113C27.5177 47.6087 26.8587 47.6438 26.2286 47.8144C25.92 47.8866 25.7914 47.8144 25.7657 47.4794C25.5529 44.7505 25.7261 42.0051 26.28 39.3247C26.966 36.2304 27.4912 33.1025 27.8537 29.9536C27.9887 28.6819 28.3881 27.4528 29.0263 26.3454C29.6383 25.2526 30.1731 24.1186 30.7749 23.0206C31.0138 22.6214 31.1575 22.1723 31.195 21.7083C31.2325 21.2443 31.1626 20.7779 30.9909 20.3454C30.852 19.9794 30.7183 19.6082 30.5486 19.2577C30.0343 18.2526 29.52 17.2577 29.0469 16.2423C28.7949 15.7268 28.8514 15.6649 29.412 15.6495C30.2503 15.6495 30.2503 15.6495 30.2657 14.8041C30.2657 14.6907 30.2657 14.5773 30.2657 14.4639C30.2657 14.1082 30.132 13.9124 29.7514 13.9485C29.4943 13.9485 29.2371 13.9485 28.9697 13.9485C28.6149 13.9485 28.512 13.799 28.5994 13.433C28.7729 12.838 29.1142 12.306 29.5823 11.9009C30.0503 11.4958 30.6252 11.2349 31.2377 11.1495C32.3772 11.0505 33.5251 11.1252 34.6423 11.3711C34.7712 11.4118 34.9109 11.4001 35.0312 11.3383C35.1515 11.2766 35.2427 11.1699 35.2851 11.0412C35.4909 10.5258 35.7171 10.0103 35.9486 9.49484C36.001 9.40339 36.0242 9.29801 36.015 9.19293C36.0058 9.08785 35.9647 8.98812 35.8971 8.90722C34.2514 6.81443 32.4669 4.86082 30.0343 3.60825C29.9168 3.55754 29.8138 3.47814 29.7347 3.3773C29.6557 3.27646 29.6031 3.15738 29.5817 3.03093C29.444 2.29408 29.225 1.57487 28.9286 0.886598C28.7895 0.519904 28.5349 0.20865 28.2034 0V0Z" fill="black"></path></g><defs><clipPath id="cat-slim_0"><rect width="36" height="50" fill="white"></rect></clipPath></defs></svg><svg viewBox="0 0 19 20" fill="none" id="cross"><line y1="-0.75" x2="24.7577" y2="-0.75" transform="matrix(0.686589 -0.727046 0.686589 0.727046 1.02988 19.0906)" stroke="black" stroke-width="1.5"></line><line y1="-0.75" x2="24.7577" y2="-0.75" transform="matrix(0.686589 0.727046 -0.686589 0.727046 0.0281677 1.09057)" stroke="black" stroke-width="1.5"></line></svg><svg viewBox="0 0 32 11" fill="none" id="icon-arrow"><line y1="5.19617" x2="18" y2="5.19617" stroke="black" stroke-width="2"></line><path d="M24 5.19617L17.25 10.3923L17.25 1.4782e-05L24 5.19617Z" fill="black"></path></svg><svg viewBox="0 0 25 30" fill="none" id="icon-cutlery"><path fill-rule="evenodd" clip-rule="evenodd" d="M18.6173 0.0761497C18.991 -0.0786313 19.4211 0.00692445 19.7071 0.292922C20.6156 1.20142 21.8038 3.17065 22.7659 6.21082C23.7373 9.28039 24.5 13.5081 24.5 19C24.5 19.5523 24.0523 20 23.5 20H20V29C20 29.5523 19.5523 30 19 30C18.4477 30 18 29.5523 18 29V1.00003C18 0.595567 18.2436 0.230931 18.6173 0.0761497ZM20 18H22.4912C22.4053 13.1836 21.7051 9.48755 20.8591 6.81424C20.5807 5.93457 20.2885 5.1715 20 4.51895V18Z" fill="white"></path><path fill-rule="evenodd" clip-rule="evenodd" d="M6 0C6.55228 0 7 0.447715 7 1V29C7 29.5523 6.55228 30 6 30C5.44772 30 5 29.5523 5 29V1C5 0.447715 5.44772 0 6 0Z" fill="white"></path><path fill-rule="evenodd" clip-rule="evenodd" d="M1.5 0C2.05228 0 2.5 0.447715 2.5 1V6.5C2.5 7.05686 2.69203 7.81518 3.20088 8.41656C3.68001 8.98281 4.51446 9.5 5.99993 9.5C6.55221 9.5 6.99993 9.94771 6.99993 10.5C6.99993 11.0523 6.55221 11.5 5.99993 11.5C3.98547 11.5 2.56995 10.7672 1.6741 9.70844C0.807973 8.68482 0.5 7.44314 0.5 6.5V1C0.5 0.447715 0.947715 0 1.5 0Z" fill="white"></path><path fill-rule="evenodd" clip-rule="evenodd" d="M10.5 0C9.94771 0 9.5 0.447715 9.5 1V6.5C9.5 7.05686 9.30797 7.81518 8.79912 8.41656C8.31999 8.98281 7.4854 9.5 5.99993 9.5C5.44765 9.5 5.00007 9.94771 5.00007 10.5C5.00007 11.0523 5.44765 11.5 5.99993 11.5C8.01439 11.5 9.43005 10.7672 10.3259 9.70844C11.192 8.68482 11.5 7.44314 11.5 6.5V1C11.5 0.447715 11.0523 0 10.5 0Z" fill="white"></path></svg><svg viewBox="0 0 26 29" fill="none" id="icon-glass"><path d="M10.875 0C9.24375 0 7.975 1.35937 7.975 3.08125C7.975 4.80312 9.24375 6.1625 10.875 6.1625C12.5063 6.1625 13.775 4.80312 13.775 3.08125C13.775 1.35937 12.5063 0 10.875 0ZM10.875 1.17812C11.8719 1.17812 12.5969 2.02094 12.5969 3.08125C12.5969 4.07812 11.8084 4.98438 10.875 4.98438C9.87813 4.98438 9.15313 4.14156 9.15313 3.08125C9.15313 2.08437 9.9325 1.17812 10.875 1.17812ZM0 24.7406C0 25.9188 0.407813 26.9156 1.35938 27.7313C2.35625 28.5831 3.53438 28.5106 3.53438 28.5106H22.5656C23.345 28.5106 24.3781 28.13 25.1937 27.0606C26.0366 26.0638 25.9822 24.7044 25.9822 24.7044V7.48563C25.9822 7.05063 25.8734 6.8875 25.2391 6.8875C24.6047 6.8875 24.5503 7.15938 24.5503 7.47656V24.6953C24.5322 24.9944 24.4778 25.7828 23.8072 26.4172C23.0731 27.0425 22.3572 26.9609 22.3572 26.9609C22.3572 26.9609 4.23219 26.9609 3.32594 26.9338C2.98156 26.8703 2.41969 26.7434 1.87594 26.0275C1.36844 25.3025 1.46812 24.3962 1.46812 24.3962V7.1775C1.46812 6.71531 1.2325 6.54313 0.743125 6.54313C0.25375 6.54313 0 6.71531 0 7.12313V24.7406ZM16.3125 8.42813C15.225 8.66375 14.1375 8.80875 12.0531 10.7844C9.96875 12.7781 8.42813 12.6875 6.8875 12.5969C5.34688 12.5063 3.71563 11.0563 3.44375 10.6938C3.10844 10.3403 2.5375 10.5759 2.35625 10.8116C2.20219 11.0472 2.20219 11.455 2.465 11.8084C3.73375 12.9866 4.91188 13.8928 7.1775 14.0741C9.44312 14.2916 11.6181 13.2675 13.0681 11.8084C14.5181 10.3584 15.2431 10.0866 16.3306 9.90531C18.9587 9.48844 20.4994 10.5216 21.4056 11.1741C22.4025 12.2616 22.6744 11.9534 22.9462 11.6453C23.49 10.9294 22.7197 10.3766 21.8588 9.74219C20.0463 8.56406 18.3244 8.11094 16.3306 8.47344L16.3125 8.42813ZM7.25 15.5875C6.07188 15.5875 5.16562 16.5844 5.16562 17.8531C5.16562 19.1219 6.07188 20.1188 7.25 20.1188C8.42813 20.1188 9.33438 19.1219 9.33438 17.8531C9.33438 16.5844 8.42813 15.5875 7.25 15.5875ZM19.0312 16.3669C17.4906 16.3669 16.2219 17.7262 16.2219 19.3575C16.2219 20.9888 17.4906 22.3481 19.0312 22.3481C20.5719 22.3481 21.8406 20.9888 21.8406 19.3575C21.8406 17.7262 20.5719 16.3669 19.0312 16.3669ZM19.0312 17.8169C19.8288 17.8169 20.4813 18.5147 20.4813 19.3575C20.4813 20.2184 19.8288 20.8981 19.0312 20.8981C18.2337 20.8981 17.5812 20.2003 17.5812 19.3575C17.5812 18.4966 18.2337 17.8169 19.0312 17.8169Z" fill="white"></path></svg><svg viewBox="0 0 30 32" fill="none" id="icon-leaf"><g clip-path="url(#icon-leaf_0)"><path d="M27.8438 2.767C27.7434 2.317 27.3647 2 26.9325 2C26.9306 2 26.9288 2 26.9269 2C21.9891 2.033 9.98156 2.916 5.13375 10.38C2.61562 14.258 2.39906 19.293 4.48969 25.345C4.50562 25.392 4.53844 25.424 4.56 25.467C3.81281 27.44 3.52312 28.753 3.51562 28.79C3.40687 29.33 3.73031 29.862 4.23656 29.978C4.30219 29.993 4.36781 30 4.43344 30C4.86562 30 5.25469 29.679 5.34937 29.21C5.36906 29.108 7.75781 18.837 16.2028 12.832C16.6341 12.526 16.7503 11.905 16.4625 11.445C16.1747 10.985 15.5934 10.86 15.1622 11.168C10.3734 14.573 7.42406 19.176 5.68969 22.824C4.44844 18.246 4.77375 14.447 6.67594 11.519C10.4194 5.755 19.2984 4.365 24.6581 4.071C23.505 5.872 22.245 9.174 22.245 15C22.245 18.12 21.4153 20.522 19.7803 22.14C17.1591 24.731 12.9009 24.974 9.78656 24.724C9.26906 24.679 8.82 25.095 8.78062 25.646C8.74125 26.196 9.12844 26.676 9.64406 26.718C10.2675 26.769 10.9331 26.8 11.625 26.8C14.7956 26.8 18.4941 26.137 21.0544 23.606C23.0888 21.595 24.12 18.7 24.12 15.001C24.12 5.902 27.3356 3.905 27.3516 3.896C27.7416 3.687 27.9459 3.219 27.8438 2.767Z" fill="white"></path></g><defs><clipPath id="icon-leaf_0"><rect width="30" height="32" fill="white"></rect></clipPath></defs></svg><svg viewBox="0 0 27 31" fill="none" id="icon-scales"><path d="M5.55784 0C4.49108 0 4.49108 1.5831 5.55784 1.5831H12.2251V3.18731C5.39783 3.62002 0 9.41417 0 16.4854C0 20.4959 1.74949 24.1159 4.51241 26.5539C4.99246 26.976 5.05646 27.7254 4.61909 28.1897L3.08295 29.7412C2.33621 30.4272 3.44565 31.4931 4.11771 30.7438L6.12323 28.7069C6.47526 28.3692 6.99798 28.2847 7.43535 28.4958C9.16007 29.3397 11.0564 29.784 12.9805 29.795C14.9046 29.8059 16.8059 29.3833 18.5404 28.5591C18.9671 28.348 19.5005 28.4325 19.8418 28.7702L21.7833 30.7438C22.4661 31.377 23.4475 30.4272 22.8288 29.7412L21.378 28.2636C20.9299 27.8098 20.9939 27.0605 21.4846 26.6277C22.9403 25.3585 24.1047 23.7959 24.8995 22.0447C25.6944 20.2936 26.1014 18.3944 26.0931 16.4748C26.0931 9.40362 20.6632 3.59891 13.8253 3.18731V1.5831H20.4925C21.5593 1.5831 21.5593 0 20.4925 0H5.55784ZM1.44013 16.4748C1.44013 9.94187 6.63528 4.65431 13.0465 4.65431C19.4471 4.65431 24.6423 9.94187 24.6423 16.4748C24.6423 23.0183 19.4471 28.3164 13.0465 28.3164C6.64594 28.3164 1.44013 23.0183 1.44013 16.4748ZM12.2358 8.37988C12.2358 7.28226 13.8999 7.28226 13.8999 8.37988V17.0131C13.8999 17.237 13.81 17.4517 13.65 17.6101C13.4899 17.7684 13.2729 17.8574 13.0465 17.8574C12.8333 17.8574 12.6287 17.7743 12.477 17.6262C12.3253 17.478 12.2386 17.2767 12.2358 17.0658V8.37988ZM7.24333 10.9973C7.55172 10.9973 7.84748 10.8761 8.06554 10.6603C8.2836 10.4446 8.40611 10.152 8.40611 9.84688C8.40611 9.54178 8.2836 9.24918 8.06554 9.03344C7.84748 8.8177 7.55172 8.6965 7.24333 8.6965C6.95553 8.72386 6.68836 8.85633 6.49394 9.06805C6.29952 9.27977 6.1918 9.55556 6.1918 9.84161C6.1918 10.1277 6.29952 10.4034 6.49394 10.6152C6.68836 10.8269 6.95553 10.9593 7.24333 10.9867V10.9973ZM18.8391 10.9973C19.1475 10.9973 19.4432 10.8761 19.6613 10.6603C19.8793 10.4446 20.0018 10.152 20.0018 9.84688C20.0018 9.54178 19.8793 9.24918 19.6613 9.03344C19.4432 8.8177 19.1475 8.6965 18.8391 8.6965C18.5513 8.72386 18.2841 8.85633 18.0897 9.06805C17.8953 9.27977 17.7875 9.55556 17.7875 9.84161C17.7875 10.1277 17.8953 10.4034 18.0897 10.6152C18.2841 10.8269 18.5513 10.9593 18.8391 10.9867V10.9973ZM8.40611 23.5882C8.40611 25.1185 6.08056 25.1185 6.08056 23.5882C6.08056 22.0579 8.40611 22.0579 8.40611 23.5882ZM13.0465 27.0288C13.2079 27.0441 13.3707 27.0259 13.5245 26.9754C13.6783 26.9248 13.8197 26.843 13.9397 26.7352C14.0596 26.6273 14.1555 26.4959 14.2211 26.3493C14.2867 26.2026 14.3206 26.044 14.3206 25.8837C14.3206 25.7233 14.2867 25.5648 14.2211 25.4181C14.1555 25.2715 14.0596 25.14 13.9397 25.0322C13.8197 24.9244 13.6783 24.8426 13.5245 24.792C13.3707 24.7414 13.2079 24.7232 13.0465 24.7386C12.7587 24.7659 12.4916 24.8984 12.2971 25.1101C12.1027 25.3219 11.995 25.5976 11.995 25.8837C11.995 26.1697 12.1027 26.4455 12.2971 26.6572C12.4916 26.869 12.7587 27.0014 13.0465 27.0288ZM4.92845 16.6437C4.94396 16.8033 4.92557 16.9643 4.87445 17.1165C4.82334 17.2687 4.74064 17.4086 4.63165 17.5273C4.52267 17.646 4.3898 17.7408 4.24159 17.8057C4.09338 17.8706 3.93309 17.9041 3.77101 17.9041C3.60894 17.9041 3.44865 17.8706 3.30044 17.8057C3.15222 17.7408 3.01936 17.646 2.91038 17.5273C2.80139 17.4086 2.71869 17.2687 2.66757 17.1165C2.61646 16.9643 2.59807 16.8033 2.61357 16.6437C2.64123 16.3589 2.77513 16.0946 2.98913 15.9023C3.20313 15.7099 3.48189 15.6033 3.77101 15.6033C4.06014 15.6033 4.3389 15.7099 4.5529 15.9023C4.7669 16.0946 4.90079 16.3589 4.92845 16.6437ZM22.3167 17.794C22.4781 17.8094 22.6408 17.7912 22.7947 17.7406C22.9485 17.6901 23.0899 17.6082 23.2098 17.5004C23.3298 17.3926 23.4257 17.2611 23.4913 17.1145C23.5569 16.9679 23.5907 16.8093 23.5907 16.6489C23.5907 16.4886 23.5569 16.33 23.4913 16.1834C23.4257 16.0367 23.3298 15.9053 23.2098 15.7975C23.0899 15.6896 22.9485 15.6078 22.7947 15.5573C22.6408 15.5067 22.4781 15.4885 22.3167 15.5038C22.0289 15.5312 21.7617 15.6637 21.5673 15.8754C21.3729 16.0871 21.2652 16.3629 21.2652 16.6489C21.2652 16.935 21.3729 17.2108 21.5673 17.4225C21.7617 17.6342 22.0289 17.7667 22.3167 17.794ZM20.0018 23.5987C20.0018 25.1185 17.6763 25.1185 17.6763 23.5882C17.6763 22.0579 20.0018 22.0579 20.0018 23.5882V23.5987Z" fill="white"></path></svg></svg>