<svg xmlns="http://www.w3.org/2000/svg" width="128" height="24" fill="none" viewBox="0 0 128 24"><g fill="#111" clip-path="url(#a)"><path d="M1.62 21.96a9.4 9.4 0 0 1-1.6-5.72V7.76a9.6 9.6 0 0 1 1.5-5.82C2.62.61 4.32 0 6.83 0s4.1.61 5.1 1.74a7.4 7.4 0 0 1 1.51 5v2.04h-4.9V6.43q.04-1.06-.3-2.04a1.42 1.42 0 0 0-1.4-.82c-.71 0-1.21.2-1.41.72a7 7 0 0 0-.3 2.25v10.92a4.3 4.3 0 0 0 .4 2.15c.2.5.7.71 1.4.71s1.1-.2 1.3-.71q.34-1.05.3-2.15v-2.45h4.91v2.05a8 8 0 0 1-1.5 5.1Q10.44 24 6.84 24c-2.41-.1-4.22-.71-5.22-2.04M19.35.3h5.7l4.21 23.3h-4.6l-.8-4.91h-3.31l-.8 4.9h-4.7zm4.1 15.33-1.2-9.1-1.2 9.1zM32.77 4.19h-3.4V.3h11.9v3.78h-3.4v19.5h-5.1zM50.4.3h8.8v2.46h-5.7v7.66h4.6v2.35h-4.6v8.57h5.7v2.35h-8.9V.31zM61.8.3h2.21l6.51 15.43V.3h2.6v23.28h-2l-6.6-15.93v15.93H61.8zM76.13.3h8.81v2.46h-5.7v7.66h4.6v2.35h-4.6v8.57h5.7v2.35h-8.81zM87.54.3h4.61a8 8 0 0 1 5.1 1.44c1.1.92 1.6 2.55 1.6 4.7 0 2.96-.9 4.8-2.8 5.4l3.21 11.65h-3.1l-3-10.93h-2.51V23.5h-3.2V.3zm4.41 10.01c1.03.1 2.06-.2 2.9-.81q.9-.76.9-3.07a7 7 0 0 0-.3-2.24 2.6 2.6 0 0 0-1.1-1.23 4.5 4.5 0 0 0-2.2-.4h-1.4v7.65h1.2zM102.87 21.86a10.5 10.5 0 0 1-1.4-5.93V8.17a17 17 0 0 1 .5-4.4c.33-1.06 1-2 1.9-2.65 1.11-.67 2.4-1 3.7-.92 2.1 0 3.6.51 4.5 1.64a8 8 0 0 1 1.41 5.1v.82h-3v-.71q0-1.29-.2-2.56a2 2 0 0 0-.8-1.32 3 3 0 0 0-1.9-.51 3 3 0 0 0-2.01.6 2.3 2.3 0 0 0-.8 1.64q-.2 1.38-.2 2.76v8.68a9.4 9.4 0 0 0 .6 3.88c.4.82 1.2 1.12 2.4 1.12a2.4 2.4 0 0 0 2.4-1.22c.53-1.3.77-2.69.7-4.09V14.4h-2.9v-2.35h5.81V23.6h-2l-.3-2.65a4.2 4.2 0 0 1-1.56 2.2c-.74.53-1.64.8-2.55.76a4.9 4.9 0 0 1-4.3-2.04M119.99 15.42 115.09.41h3l3.5 11.23L125 .41H128l-4.9 15.01v8.17h-3.01v-8.17z"/></g><defs><clipPath id="a"><path fill="#fff" d="M0 0h128v24H0z"/></clipPath></defs></svg>