<svg xmlns="http://www.w3.org/2000/svg" width="101" height="18" fill="none" viewBox="0 0 101 18"><g fill="#111" clip-path="url(#a)"><path d="M1.26 16.54A7 7 0 0 1 0 12.24v-6.4C-.1 4.3.3 2.77 1.19 1.47 2.05.46 3.39 0 5.37 0S8.61.46 9.4 1.3a5.4 5.4 0 0 1 1.19 3.78v1.54H6.72V4.85a4 4 0 0 0-.24-1.54q-.15-.31-.46-.47-.3-.16-.65-.15-.84-.01-1.1.54a5 5 0 0 0-.24 1.7v8.22q-.06.86.32 1.62c.15.38.55.54 1.1.54.56 0 .87-.16 1.03-.54q.27-.79.24-1.62v-1.84h3.87v1.54a5.8 5.8 0 0 1-1.19 3.84q-1.18 1.4-4.03 1.39c-1.9-.08-3.32-.54-4.1-1.54M15.25.23h4.5l3.33 17.54h-3.64l-.63-3.7h-2.6l-.64 3.7h-3.72zm3.24 11.54-.95-6.85-.94 6.85zM25.84 3.15h-2.68V.23h9.4v2.85h-2.69v14.69h-4.03zM39.75.23h6.96v1.85h-4.5v5.77h3.63v1.77H42.2v6.46h4.5v1.77h-7.03V.23zM48.76.23h1.74l5.14 11.62V.23h2.05v17.54h-1.58l-5.21-12v12h-2.14zM60.06.23h6.96v1.85h-4.5v5.77h3.63v1.77H62.5v6.46h4.5v1.77h-6.95zM69.07.23h3.64c1.43-.1 2.85.28 4.03 1.08C77.6 2 78 3.23 78 4.85c0 2.23-.7 3.61-2.21 4.07l2.53 8.77h-2.45L73.5 9.46h-1.98v8.23H69V.23zm3.48 7.54c.81.06 1.63-.15 2.3-.62q.7-.57.7-2.3a5 5 0 0 0-.23-1.7q-.29-.6-.87-.92a4 4 0 0 0-1.74-.3h-1.1v5.76h.94zM81.16 16.46a7.6 7.6 0 0 1-1.1-4.46V6.15q-.03-1.67.4-3.3c.26-.81.78-1.51 1.5-2 .88-.51 1.9-.75 2.92-.7q2.49-.01 3.55 1.23a5.8 5.8 0 0 1 1.11 3.85v.62h-2.37V5.3q0-.97-.16-1.93c-.06-.4-.3-.76-.63-1a2.5 2.5 0 0 0-1.5-.38 2.4 2.4 0 0 0-1.58.46 1.8 1.8 0 0 0-.63 1.23q-.16 1.03-.16 2.08v6.54c-.06 1 .1 2 .47 2.92.32.62.95.85 1.9.85q.57.06 1.09-.19t.8-.74q.63-1.47.56-3.07v-1.23h-2.3V9.08h4.59v8.69h-1.58l-.24-2c-.2.67-.64 1.25-1.22 1.66q-.92.6-2.02.57a4 4 0 0 1-3.4-1.54M94.68 11.62 90.8.3h2.37l2.76 8.46L98.63.3H101l-3.87 11.3v6.16h-2.37v-6.15z"/></g><defs><clipPath id="a"><path fill="#fff" d="M0 0h101v18H0z"/></clipPath></defs></svg>